# xmcd
#
# Track frame offsets: 
#        150
#        21970
#        46617
#        63702
#        87905
#        119867
#        149265
#        183515
#        211067
#        240357
#        262500
#
# Disc length: 3792 seconds
#
# Revision: 1
# Processed by: cddbd v1.5.2PL0 Copyright (c) Steve Scherf et al.
# Submitted via: ExactAudioCopy v0.99pb4
#
DISCID=920ece0b
DTITLE=Yasek Manzano, Roberto Martinez - JoJazz, El Joven Jazz Cubano
DYEAR=2003
DGENRE=Jazz
TTITLE0=Coartada
TTITLE1=Melo Danzón
TTITLE2=Balada para Piano y Trompeta
TTITLE3=Corazón en La Habana
TTITLE4=Rara Calma
TTITLE5=Brisas
TTITLE6=Waiting for Oyarsa
TTITLE7=Mambo influenciado
TTITLE8=The fish
TTITLE9=Metropolitan bus
TTITLE10=Sapo que rueda
EXTD=YEAR: 2003
EXTT0=
EXTT1=
EXTT2=
EXTT3=
EXTT4=
EXTT5=
EXTT6=
EXTT7=
EXTT8=
EXTT9=
EXTT10=
PLAYORDER=
